<?xml version="1.0" encoding="UTF-8" standalone="no"?>
<svg
   xmlns:dc="http://purl.org/dc/elements/1.1/"
   xmlns:cc="http://creativecommons.org/ns#"
   xmlns:rdf="http://www.w3.org/1999/02/22-rdf-syntax-ns#"
   xmlns:svg="http://www.w3.org/2000/svg"
   xmlns="http://www.w3.org/2000/svg"
   xmlns:sodipodi="http://sodipodi.sourceforge.net/DTD/sodipodi-0.dtd"
   xmlns:inkscape="http://www.inkscape.org/namespaces/inkscape"
   width="56mm"
   height="56mm"
   viewBox="0 0 56 56"
   version="1.1"
   id="svg8"
   inkscape:version="1.0.1 (3bc2e813f5, 2020-09-07)"
   sodipodi:docname="deleteTerminal.svg"
   inkscape:export-filename="C:\Users\Hannes\eclipse-workspace\Petrinets_9739335_Wilms_Hannes\resources\images\DeleteTerminal.png"
   inkscape:export-xdpi="25"
   inkscape:export-ydpi="25">
  <defs
     id="defs2">
    <marker
       style="overflow:visible"
       id="Arrow1Lend"
       refX="0"
       refY="0"
       orient="auto"
       inkscape:stockid="Arrow1Lend"
       inkscape:isstock="true">
      <path
         transform="matrix(-0.8,0,0,-0.8,-10,0)"
         style="fill:#000000;fill-opacity:1;fill-rule:evenodd;stroke:#000000;stroke-width:1pt;stroke-opacity:1"
         d="M 0,0 5,-5 -12.5,0 5,5 Z"
         id="path968" />
    </marker>
    <marker
       style="overflow:visible"
       id="Arrow2Lend"
       refX="0"
       refY="0"
       orient="auto"
       inkscape:stockid="Arrow2Lend"
       inkscape:isstock="true">
      <path
         transform="matrix(-1.1,0,0,-1.1,-1.1,0)"
         d="M 8.7185878,4.0337352 -2.2072895,0.01601326 8.7185884,-4.0017078 c -1.7454984,2.3720609 -1.7354408,5.6174519 -6e-7,8.035443 z"
         style="fill:#ff0000;fill-opacity:1;fill-rule:evenodd;stroke:#ff0000;stroke-width:0.625;stroke-linejoin:round;stroke-opacity:1"
         id="path986" />
    </marker>
    <marker
       style="overflow:visible"
       id="marker1425"
       refX="0"
       refY="0"
       orient="auto"
       inkscape:stockid="Arrow1Lend"
       inkscape:isstock="true">
      <path
         transform="matrix(-0.8,0,0,-0.8,-10,0)"
         style="fill:#000000;fill-opacity:1;fill-rule:evenodd;stroke:#000000;stroke-width:1pt;stroke-opacity:1"
         d="M 0,0 5,-5 -12.5,0 5,5 Z"
         id="path1423" />
    </marker>
    <marker
       style="overflow:visible"
       id="marker1425-8"
       refX="0"
       refY="0"
       orient="auto"
       inkscape:stockid="Arrow1Lend"
       inkscape:isstock="true">
      <path
         transform="matrix(-0.8,0,0,-0.8,-10,0)"
         style="fill:#000000;fill-opacity:1;fill-rule:evenodd;stroke:#000000;stroke-width:1pt;stroke-opacity:1"
         d="M 0,0 5,-5 -12.5,0 5,5 Z"
         id="path1423-4" />
    </marker>
  </defs>
  <sodipodi:namedview
     id="base"
     pagecolor="#ffffff"
     bordercolor="#666666"
     borderopacity="1.0"
     inkscape:pageopacity="0.0"
     inkscape:pageshadow="2"
     inkscape:zoom="1.979899"
     inkscape:cx="48.346069"
     inkscape:cy="111.79594"
     inkscape:document-units="mm"
     inkscape:current-layer="layer1"
     inkscape:document-rotation="0"
     showgrid="false"
     inkscape:snap-bbox="true"
     inkscape:bbox-paths="true"
     inkscape:bbox-nodes="true"
     inkscape:snap-bbox-edge-midpoints="true"
     inkscape:snap-bbox-midpoints="true"
     inkscape:object-paths="true"
     inkscape:snap-intersection-paths="true"
     inkscape:snap-smooth-nodes="true"
     inkscape:snap-midpoints="true"
     inkscape:snap-object-midpoints="true"
     inkscape:snap-center="true"
     inkscape:snap-text-baseline="true"
     inkscape:window-width="1920"
     inkscape:window-height="1001"
     inkscape:window-x="-9"
     inkscape:window-y="354"
     inkscape:window-maximized="1" />
  <metadata
     id="metadata5">
    <rdf:RDF>
      <cc:Work
         rdf:about="">
        <dc:format>image/svg+xml</dc:format>
        <dc:type
           rdf:resource="http://purl.org/dc/dcmitype/StillImage" />
        <dc:title></dc:title>
      </cc:Work>
    </rdf:RDF>
  </metadata>
  <g
     inkscape:label="Ebene 1"
     inkscape:groupmode="layer"
     id="layer1">
    <path
       id="rect1009"
       style="fill:#000000;stroke:none;stroke-width:5.48784"
       d="M 11.337891 11.337891 L 11.337891 200.31445 L 200.31445 200.31445 L 200.31445 49.134766 A 37.795275 37.795274 0 0 0 162.51953 11.337891 L 11.337891 11.337891 z "
       transform="scale(0.26458333)" />
    <g
       id="g1665"
       transform="translate(0.89956953,34.899562)">
      <circle
         style="fill:#ffffff;stroke:none;stroke-width:0.34114;stroke-miterlimit:4;stroke-dasharray:none;stroke-opacity:1"
         id="path1616"
         cx="44.5"
         cy="10.5"
         r="10" />
      <path
         id="path1616-6"
         style="fill:#ff0000;stroke:none;stroke-width:0.341141;stroke-miterlimit:4;stroke-dasharray:none;stroke-opacity:1"
         d="m 51.571128,17.571135 a 10,10 0 0 0 0,-14.1420031 10,10 0 0 0 -14.142003,0 10,10 0 0 0 -10e-7,14.1420041 10,10 0 0 0 14.142004,-10e-7 z m -0.844822,-0.922289 a 8.7499999,8.7499999 0 0 1 -0.03873,0.03873 8.7499999,8.7499999 0 0 1 -11.638232,0.657004 L 51.344941,5.0489829 A 8.7499999,8.7499999 0 0 1 50.726306,16.648846 Z M 49.951277,3.6553189 37.655677,15.950919 A 8.7499999,8.7499999 0 0 1 38.313046,4.3130529 8.7499999,8.7499999 0 0 1 49.951277,3.6553189 Z" />
    </g>
    <path
       style="fill:none;fill-opacity:1;stroke:#ffffff;stroke-width:1.80552;stroke-linecap:round;stroke-linejoin:round;stroke-miterlimit:4;stroke-dasharray:none;stroke-opacity:1;paint-order:markers fill stroke"
       d="m 7.7406514,30.120889 c 0,0 11.6079156,-6.795915 11.6079156,-6.965466 0,-0.169551 -11.6079156,-7.135015 -11.6079156,-7.135015"
       id="path1039" />
    <path
       style="fill:none;stroke:#ffffff;stroke-width:1;stroke-linecap:butt;stroke-linejoin:miter;stroke-miterlimit:4;stroke-dasharray:none;stroke-opacity:1"
       d="M 21.985271,31.927964 H 37.219634"
       id="path1056" />
  </g>
</svg>
