<?xml version="1.0" encoding="UTF-8" standalone="no"?>
<svg
   xmlns:dc="http://purl.org/dc/elements/1.1/"
   xmlns:cc="http://creativecommons.org/ns#"
   xmlns:rdf="http://www.w3.org/1999/02/22-rdf-syntax-ns#"
   xmlns:svg="http://www.w3.org/2000/svg"
   xmlns="http://www.w3.org/2000/svg"
   xmlns:sodipodi="http://sodipodi.sourceforge.net/DTD/sodipodi-0.dtd"
   xmlns:inkscape="http://www.inkscape.org/namespaces/inkscape"
   width="56mm"
   height="56mm"
   viewBox="0 0 56 56"
   version="1.1"
   id="svg1493"
   inkscape:version="1.0.1 (3bc2e813f5, 2020-09-07)"
   sodipodi:docname="reset.svg"
   inkscape:export-filename="C:\Users\Hannes\eclipse-workspace\Petrinets_9739335_Wilms_Hannes\resources\images\reset.png"
   inkscape:export-xdpi="25"
   inkscape:export-ydpi="25">
  <defs
     id="defs1487">
    <inkscape:path-effect
       effect="perspective-envelope"
       up_left_point="4.28582,3.1828637"
       up_right_point="54.306884,3.1828637"
       down_left_point="4.28582,54.490443"
       down_right_point="41.038299,41.221858"
       id="path-effect4344"
       is_visible="true"
       lpeversion="1"
       deform_type="perspective"
       horizontal_mirror="false"
       vertical_mirror="false"
       overflow_perspective="false" />
    <inkscape:path-effect
       effect="perspective-envelope"
       up_left_point="19.492217,17.506394"
       up_right_point="38.934371,17.506394"
       down_left_point="19.492217,36.494206"
       down_right_point="33.735481,32.198463"
       id="path-effect4342"
       is_visible="true"
       lpeversion="1"
       deform_type="perspective"
       horizontal_mirror="false"
       vertical_mirror="false"
       overflow_perspective="false" />
    <inkscape:path-effect
       effect="perspective-envelope"
       up_left_point="19.096736,16.927931"
       up_right_point="38.53889,16.927931"
       down_left_point="19.096736,35.915743"
       down_right_point="33.34,31.62"
       id="path-effect4266"
       is_visible="true"
       lpeversion="1"
       deform_type="perspective"
       horizontal_mirror="false"
       vertical_mirror="false"
       overflow_perspective="false" />
    <inkscape:path-effect
       effect="perspective-envelope"
       up_left_point="19.096736,16.927931"
       up_right_point="38.53889,16.927931"
       down_left_point="19.096736,35.915743"
       down_right_point="38.53889,35.915743"
       id="path-effect4264"
       is_visible="true"
       lpeversion="1"
       deform_type="perspective"
       horizontal_mirror="false"
       vertical_mirror="false"
       overflow_perspective="false" />
    <inkscape:path-effect
       effect="perspective-envelope"
       up_left_point="19.096736,16.927931"
       up_right_point="38.53889,16.927931"
       down_left_point="19.096736,35.915743"
       down_right_point="27.574496,27.636099"
       id="path-effect4262"
       is_visible="true"
       lpeversion="1"
       deform_type="perspective"
       horizontal_mirror="false"
       vertical_mirror="false"
       overflow_perspective="false" />
    <inkscape:path-effect
       effect="perspective-envelope"
       up_left_point="11.738281,6.8984375"
       up_right_point="199.91602,6.8984375"
       down_left_point="11.738281,199.91602"
       down_right_point="150,150"
       id="path-effect4260"
       is_visible="true"
       lpeversion="1"
       deform_type="perspective"
       horizontal_mirror="false"
       vertical_mirror="false"
       overflow_perspective="false" />
    <inkscape:path-effect
       effect="offset"
       id="path-effect2058"
       is_visible="true"
       lpeversion="1"
       linejoin_type="miter"
       unit="mm"
       offset="-0.1"
       miter_limit="4"
       attempt_force_join="true"
       update_on_knot_move="true" />
  </defs>
  <sodipodi:namedview
     id="base"
     pagecolor="#ffffff"
     bordercolor="#666666"
     borderopacity="1.0"
     inkscape:pageopacity="0.0"
     inkscape:pageshadow="2"
     inkscape:zoom="1.4"
     inkscape:cx="-16.016161"
     inkscape:cy="10.74636"
     inkscape:document-units="mm"
     inkscape:current-layer="layer1"
     inkscape:document-rotation="0"
     showgrid="false"
     inkscape:window-width="1920"
     inkscape:window-height="1001"
     inkscape:window-x="-9"
     inkscape:window-y="354"
     inkscape:window-maximized="1" />
  <metadata
     id="metadata1490">
    <rdf:RDF>
      <cc:Work
         rdf:about="">
        <dc:format>image/svg+xml</dc:format>
        <dc:type
           rdf:resource="http://purl.org/dc/dcmitype/StillImage" />
        <dc:title></dc:title>
      </cc:Work>
    </rdf:RDF>
  </metadata>
  <g
     inkscape:label="Ebene 1"
     inkscape:groupmode="layer"
     id="layer1">
    <g
       id="g4350"
       transform="matrix(1.0737404,0,0,1.0737404,-0.19272648,1.2706546)">
      <path
         id="path2200"
         style="fill:#333333;fill-opacity:1;fill-rule:nonzero;stroke:#000000;stroke-width:0.999999px;stroke-linecap:butt;stroke-linejoin:miter;stroke-opacity:1"
         d="M 181.8281,6.8984375 163.59356,28.044534 C 154.68406,18.125497 141.25275,12.53003 124.68022,12.760718 68.982916,13.535316 11.738592,71.297848 11.738281,126.72507 c -9.18e-4,43.84596 38.722457,59.21102 79.396566,44.52676 34.508143,-12.4579 67.361683,-45.60884 79.398223,-80.116983 l -11.50513,2.578611 -0.40302,0.05561 c 0,0 -0.0121,0.03744 -0.0121,0.03744 -9.23571,28.459502 -36.4906,55.961122 -64.959761,65.547812 -32.564285,10.96594 -61.33953,-3.07023 -59.51484,-37.64967 2.17298,-41.194688 44.13816,-83.659785 85.573451,-86.571224 0.0789,-0.0054 0.15781,-0.0106 0.23663,-0.01566 12.25739,-0.810791 22.59945,2.371767 29.97475,8.779311 l -18.2659,21.184045 29.91692,1.358646 6.27349,0.283883 10.61711,0.481804 z"
         transform="scale(0.26458333)"
         inkscape:path-effect="#path-effect4260"
         inkscape:original-d="M 173.38867,6.8984375 157.14453,26.964844 a 94.088304,94.088304 0 0 0 -51.31836,-15.226563 94.088304,94.088304 0 0 0 -94.087889,94.087889 94.088304,94.088304 0 0 0 94.087889,94.08985 94.088304,94.088304 0 0 0 94.08985,-94.08985 h -18.81836 l -0.65821,-0.0508 a 74.611931,74.611931 0 0 1 0,0.0508 74.611931,74.611931 0 0 1 -74.61328,74.61328 74.611931,74.611931 0 0 1 -74.611326,-74.61328 74.611931,74.611931 0 0 1 74.353516,-74.611326 74.611931,74.611931 0 0 1 0.25781,0 74.611931,74.611931 0 0 1 38.97852,10.992187 l -16.70703,20.640625 42.98046,6.800782 10.08008,1.59375 18.03711,2.853515 z" />
      <path
         id="path2200-8"
         style="fill:#333333;fill-opacity:1;stroke:#000000;stroke-width:0.100904px;stroke-linecap:butt;stroke-linejoin:miter;stroke-opacity:1"
         d="m 19.223374,34.206161 2.185873,-1.552064 c 0.936669,0.779629 2.159823,1.166184 3.506421,1.163042 3.378057,-0.0078 7.295857,-2.557322 9.449798,-6.000131 2.397943,-3.832756 2.420085,-8.449987 -0.796645,-10.225789 -4.124437,-2.277003 -10.767928,1.167437 -13.231267,7.30925 l 1.996374,0.415064 0.06417,0.01902 c 0,0 0.0021,-0.0053 0.0021,-0.0053 1.952227,-4.509434 6.86632,-7.158355 10.067305,-5.673209 2.643124,1.226271 2.793993,4.826553 0.891188,7.951599 -1.738273,2.854893 -4.971758,4.934885 -7.69999,4.851144 -0.0062,-1.99e-4 -0.0123,-4.1e-4 -0.01844,-6.31e-4 -1.011137,-0.03461 -1.913494,-0.358326 -2.598172,-0.963537 l 2.174273,-1.543947 -3.436,-0.983207 -0.917013,-0.262269 -1.76661,-0.505453 z"
         inkscape:path-effect="#path-effect4266"
         inkscape:original-d="m 19.224795,33.470463 2.232751,-1.342058 a 9.4938321,9.4938321 0 0 0 4.34043,3.214804 9.4938321,9.4938321 0 0 0 12.168313,-5.674179 9.4938321,9.4938321 0 0 0 -5.67411,-12.168498 9.4938321,9.4938321 0 0 0 -12.168565,5.674296 l 1.784324,0.64944 0.06065,0.02752 a 7.5285995,7.5285995 0 0 1 0.0016,-0.0049 7.5285995,7.5285995 0 0 1 9.649678,-4.499716 7.5285995,7.5285995 0 0 1 4.499531,9.649608 7.5285995,7.5285995 0 0 1 -9.624978,4.508497 7.5285995,7.5285995 0 0 1 -0.02445,-0.0089 7.5285995,7.5285995 0 0 1 -3.316523,-2.387445 l 2.296462,-1.380527 -3.840629,-2.128137 -0.900775,-0.498985 -1.611768,-0.893044 z" />
      <path
         id="path2200-86"
         style="fill:#666666;fill-opacity:1;fill-rule:nonzero;stroke:#000000;stroke-width:0.070331px;stroke-linecap:butt;stroke-linejoin:miter;stroke-opacity:1"
         d="M 49.498786,3.1828637 44.651713,8.8038808 C 42.283408,6.16722 38.713122,4.6798431 34.30784,4.7411644 19.502486,4.947066 4.2859048,20.301395 4.28582,35.034958 4.2855763,46.690013 14.578953,50.774322 25.390871,46.87098 34.563764,43.559446 43.296831,34.747322 46.496362,25.57443 l -3.058271,0.685442 -0.107101,0.0147 c 0,0 -0.0033,0.01003 -0.0033,0.01003 C 40.872671,33.849655 33.627826,41.160085 26.060207,43.7084 17.404029,46.623346 9.7550469,42.892278 10.240083,33.700433 10.817703,22.750138 21.972811,11.462145 32.987061,10.688234 c 0.02098,-0.0014 0.04194,-0.0028 0.06289,-0.0042 3.258238,-0.215524 6.007345,0.630458 7.967834,2.3337 l -4.855406,5.631103 7.952458,0.361152 1.667609,0.07546 2.82222,0.12807 z"
         inkscape:path-effect="#path-effect4344"
         inkscape:original-d="M 12.56978,1.4503738 11.427313,2.8616655 A 6.6173301,6.6173301 0 0 0 7.818038,1.7907651 6.6173301,6.6173301 0 0 0 1.2007369,8.4080653 6.6173301,6.6173301 0 0 0 7.818038,15.025504 6.6173301,6.6173301 0 0 0 14.435477,8.4080653 h -1.323515 l -0.04629,-0.0036 a 5.2475361,5.2475361 0 0 1 0,0.0036 5.2475361,5.2475361 0 0 1 -5.247631,5.2476307 5.2475361,5.2475361 0 0 1 -5.247494,-5.2476307 5.2475361,5.2475361 0 0 1 5.229362,-5.2474929 5.2475361,5.2475361 0 0 1 0.01813,0 5.2475361,5.2475361 0 0 1 2.741401,0.7730923 l -1.175023,1.4516766 3.022861,0.478306 0.708943,0.112091 1.268569,0.20069 z" />
      <path
         id="path2200-8-1"
         style="fill:#666666;fill-opacity:1;stroke:#000000;stroke-width:0.100904px;stroke-linecap:butt;stroke-linejoin:miter;stroke-opacity:1"
         d="m 19.618856,34.784623 2.185873,-1.552063 c 0.936669,0.779628 2.159822,1.166183 3.50642,1.163042 3.378057,-0.0078 7.295858,-2.557322 9.449798,-6.000131 2.397943,-3.832757 2.420085,-8.449988 -0.796645,-10.225789 -4.124437,-2.277003 -10.767928,1.167438 -13.231266,7.30925 l 1.996374,0.415065 0.06417,0.01902 c 0,0 0.0021,-0.0053 0.0021,-0.0053 1.952228,-4.509433 6.866317,-7.158354 10.067302,-5.673209 2.643125,1.22627 2.793994,4.826551 0.891191,7.951597 -1.738274,2.854893 -4.971758,4.934885 -7.69999,4.851145 -0.0062,-2e-4 -0.0123,-4.11e-4 -0.01844,-6.32e-4 -1.011137,-0.03461 -1.913494,-0.358326 -2.598171,-0.963538 l 2.174273,-1.543947 -3.436001,-0.983207 -0.917012,-0.262268 -1.766611,-0.505454 z"
         inkscape:path-effect="#path-effect4342"
         inkscape:original-d="m 16.646814,32.604577 2.232751,-1.342057 a 9.4938321,9.4938321 0 0 0 4.34043,3.214804 9.4938321,9.4938321 0 0 0 12.168315,-5.67418 9.4938321,9.4938321 0 0 0 -5.674112,-12.168498 9.4938321,9.4938321 0 0 0 -12.168565,5.674297 l 1.784324,0.64944 0.06065,0.02752 a 7.5285997,7.5285997 0 0 1 0.0016,-0.0049 7.5285997,7.5285997 0 0 1 9.649676,-4.499716 7.5285997,7.5285997 0 0 1 4.499533,9.649606 7.5285997,7.5285997 0 0 1 -9.624978,4.508498 7.5285997,7.5285997 0 0 1 -0.02445,-0.0089 7.5285997,7.5285997 0 0 1 -3.316523,-2.387447 l 2.296462,-1.380527 -3.840629,-2.128136 -0.900775,-0.498985 -1.611769,-0.893044 z" />
    </g>
  </g>
</svg>
