<?xml version="1.0" encoding="UTF-8" standalone="no"?>
<svg
   xmlns:dc="http://purl.org/dc/elements/1.1/"
   xmlns:cc="http://creativecommons.org/ns#"
   xmlns:rdf="http://www.w3.org/1999/02/22-rdf-syntax-ns#"
   xmlns:svg="http://www.w3.org/2000/svg"
   xmlns="http://www.w3.org/2000/svg"
   xmlns:sodipodi="http://sodipodi.sourceforge.net/DTD/sodipodi-0.dtd"
   xmlns:inkscape="http://www.inkscape.org/namespaces/inkscape"
   width="56mm"
   height="56mm"
   viewBox="0 0 56 56"
   version="1.1"
   id="svg8"
   inkscape:version="1.0.1 (3bc2e813f5, 2020-09-07)"
   sodipodi:docname="analysis.svg"
   inkscape:export-filename="C:\Users\Hannes\eclipse-workspace\Petrinets_9739335_Wilms_Hannes\resources\images\analysis.png"
   inkscape:export-xdpi="25"
   inkscape:export-ydpi="25">
  <defs
     id="defs2">
    <inkscape:path-effect
       effect="perspective-envelope"
       up_left_point="1.1027017,0.12699591"
       up_right_point="84.346974,0.12699591"
       down_left_point="-0.22112828,41.061639"
       down_right_point="131.84164,38.412064"
       id="path-effect896"
       is_visible="true"
       lpeversion="1"
       deform_type="perspective"
       horizontal_mirror="false"
       vertical_mirror="false"
       overflow_perspective="false" />
    <inkscape:path-effect
       effect="perspective-envelope"
       up_left_point="6.5664062,4.5448746"
       up_right_point="320.74609,4.5448746"
       down_left_point="1.57,159.04"
       down_right_point="500,149.04"
       id="path-effect877"
       is_visible="true"
       lpeversion="1"
       deform_type="perspective"
       horizontal_mirror="false"
       vertical_mirror="false"
       overflow_perspective="false" />
    <inkscape:path-effect
       effect="perspective-envelope"
       up_left_point="7.8844509,9.6217003"
       up_right_point="45.43582,9.6217003"
       down_left_point="7.8844509,47.173069"
       down_right_point="46.14,36.97"
       id="path-effect835"
       is_visible="true"
       lpeversion="1"
       deform_type="perspective"
       horizontal_mirror="false"
       vertical_mirror="false"
       overflow_perspective="false" />
  </defs>
  <sodipodi:namedview
     id="base"
     pagecolor="#ffffff"
     bordercolor="#666666"
     borderopacity="1.0"
     inkscape:pageopacity="0.0"
     inkscape:pageshadow="2"
     inkscape:zoom="1.4"
     inkscape:cx="178.5759"
     inkscape:cy="110.35798"
     inkscape:document-units="mm"
     inkscape:current-layer="layer1"
     inkscape:document-rotation="0"
     showgrid="false"
     inkscape:snap-bbox="true"
     inkscape:bbox-paths="true"
     inkscape:bbox-nodes="true"
     inkscape:snap-bbox-edge-midpoints="true"
     inkscape:snap-bbox-midpoints="true"
     inkscape:snap-global="true"
     inkscape:object-paths="true"
     inkscape:snap-intersection-paths="true"
     inkscape:snap-smooth-nodes="true"
     inkscape:snap-midpoints="true"
     inkscape:snap-object-midpoints="true"
     inkscape:snap-center="true"
     inkscape:window-width="1920"
     inkscape:window-height="1001"
     inkscape:window-x="-9"
     inkscape:window-y="354"
     inkscape:window-maximized="1" />
  <metadata
     id="metadata5">
    <rdf:RDF>
      <cc:Work
         rdf:about="">
        <dc:format>image/svg+xml</dc:format>
        <dc:type
           rdf:resource="http://purl.org/dc/dcmitype/StillImage" />
        <dc:title></dc:title>
      </cc:Work>
    </rdf:RDF>
  </metadata>
  <g
     inkscape:label="Ebene 1"
     inkscape:groupmode="layer"
     id="layer1">
    <path
       id="path837-3-4"
       style="fill:#cccccc;fill-opacity:1;stroke:none;stroke-width:0.136598;stroke-opacity:1"
       d="m 32.575831,8.9324175 a 13.462528,13.462528 0 0 0 -19.017497,0.02172 13.462528,13.462528 0 0 0 0,19.0387145 13.462528,13.462528 0 0 0 18.287256,0.696549 2.9206843,2.9206843 0 0 0 0.592727,3.275111 2.9206843,2.9206843 0 0 0 2.599027,0.806112 L 49.801665,48.92555 a 2.6468702,2.6468702 0 0 0 0.15948,0.174451 2.6468702,2.6468702 0 0 0 3.743301,-2.38e-4 2.6468702,2.6468702 0 0 0 2e-6,-3.743051 2.6468702,2.6468702 0 0 0 -0.171702,-0.156736 L 37.375069,30.432889 a 2.9206843,2.9206843 0 0 0 -0.806112,-2.599024 2.9206843,2.9206843 0 0 0 -3.27511,-0.592728 13.462528,13.462528 0 0 0 -0.69655,-18.2872585 13.462528,13.462528 0 0 0 -0.02146,-0.02146 z m -1.043454,1.0863775 a 11.956553,11.956553 0 0 1 2e-6,16.909383 11.956553,11.956553 0 0 1 -16.909129,-2.62e-4 11.956553,11.956553 0 0 1 0,-16.908881 11.956553,11.956553 0 0 1 16.909129,-2.62e-4 z" />
    <circle
       style="fill:#ffcc00;fill-opacity:1;stroke:#333333;stroke-width:0.4;stroke-miterlimit:4;stroke-dasharray:none;stroke-opacity:1"
       id="path921"
       cx="49.538456"
       cy="6.5148091"
       r="4.3358727" />
    <circle
       style="fill:#ffcc00;fill-opacity:1;stroke:#333333;stroke-width:0.4;stroke-miterlimit:4;stroke-dasharray:none;stroke-opacity:1"
       id="path921-3"
       cx="7.0600061"
       cy="18.668711"
       r="4.3358731" />
    <circle
       style="fill:#ffcc00;fill-opacity:1;stroke:#333333;stroke-width:0.4;stroke-miterlimit:4;stroke-dasharray:none;stroke-opacity:1"
       id="path921-6"
       cx="35.62281"
       cy="18.723434"
       r="4.3358731" />
    <circle
       style="fill:#ffcc00;fill-opacity:1;stroke:#333333;stroke-width:0.4;stroke-miterlimit:4;stroke-dasharray:none;stroke-opacity:1"
       id="path921-8"
       cx="21.432613"
       cy="5.4564738"
       r="4.3358731" />
    <rect
       style="fill:#00b5ff;fill-opacity:1;stroke:#333333;stroke-width:0.4;stroke-miterlimit:4;stroke-dasharray:none;stroke-opacity:1"
       id="rect950"
       width="8.7568531"
       height="8.7568531"
       x="17.011627"
       y="14.30721" />
    <rect
       style="fill:#00b5ff;fill-opacity:1;stroke:#333333;stroke-width:0.4;stroke-miterlimit:4;stroke-dasharray:none;stroke-opacity:1"
       id="rect950-2"
       width="8.7568531"
       height="8.7568531"
       x="45.202583"
       y="14.307211" />
    <circle
       style="fill:#ffcc00;fill-opacity:1;stroke:#333333;stroke-width:0.4;stroke-miterlimit:4;stroke-dasharray:none;stroke-opacity:1"
       id="path921-32"
       cx="21.432613"
       cy="35.764076"
       r="4.3358727" />
    <path
       id="path837-3"
       style="fill:#000000;stroke:#000000;stroke-width:0.5;stroke-miterlimit:4;stroke-dasharray:none"
       d="m 31.111354,8.9756565 a 14.958365,14.958365 0 0 0 -21.130553,0.024125 14.958365,14.958365 0 0 0 0,21.1541255 14.958365,14.958365 0 0 0 20.319174,0.773945 3.2452048,3.2452048 0 0 0 0.658586,3.63901 3.2452048,3.2452048 0 0 0 2.887806,0.89568 L 50.25117,53.412461 a 2.940967,2.940967 0 0 0 0.177199,0.193834 2.940967,2.940967 0 0 0 4.159223,-2.8e-4 2.940967,2.940967 0 0 0 3e-6,-4.158946 2.940967,2.940967 0 0 0 -0.19078,-0.174146 L 36.44384,32.865068 A 3.2452048,3.2452048 0 0 0 35.54816,29.977263 3.2452048,3.2452048 0 0 0 31.90915,29.318677 14.958365,14.958365 0 0 0 31.135205,8.999502 14.958365,14.958365 0 0 0 31.111355,8.9756583 Z m -1.159393,1.2070865 a 13.285059,13.285059 0 0 1 2e-6,18.788201 13.285059,13.285059 0 0 1 -18.787922,-2.79e-4 13.285059,13.285059 0 0 1 0,-18.787643 13.285059,13.285059 0 0 1 18.787922,-2.78e-4 z" />
    <path
       style="fill:none;stroke:#333333;stroke-width:0.6;stroke-linecap:butt;stroke-linejoin:miter;stroke-miterlimit:4;stroke-dasharray:none;stroke-opacity:1"
       d="m 11.39588,18.668711 5.656883,0.05046"
       id="path982"
       sodipodi:nodetypes="cc" />
    <path
       style="fill:none;stroke:#333333;stroke-width:0.6;stroke-linecap:butt;stroke-linejoin:miter;stroke-miterlimit:4;stroke-dasharray:none;stroke-opacity:1"
       d="m 21.390058,23.064064 0.04255,8.364139"
       id="path984" />
    <path
       style="fill:none;stroke:#333333;stroke-width:0.6;stroke-linecap:butt;stroke-linejoin:miter;stroke-miterlimit:4;stroke-dasharray:none;stroke-opacity:1"
       d="m 21.432612,9.792347 -0.04255,4.514863"
       id="path986"
       sodipodi:nodetypes="cc" />
    <path
       style="fill:none;stroke:#333333;stroke-width:0.6;stroke-linecap:butt;stroke-linejoin:miter;stroke-miterlimit:4;stroke-dasharray:none;stroke-opacity:1"
       d="m 31.286936,18.723434 -5.518451,-0.0378"
       id="path988" />
    <path
       style="fill:none;stroke:#333333;stroke-width:0.6;stroke-linecap:butt;stroke-linejoin:miter;stroke-miterlimit:4;stroke-dasharray:none;stroke-opacity:1"
       d="m 39.958681,18.723434 5.243901,-0.0378"
       id="path990" />
    <path
       style="fill:none;stroke:#333333;stroke-width:0.6;stroke-linecap:butt;stroke-linejoin:miter;stroke-miterlimit:4;stroke-dasharray:none;stroke-opacity:1"
       d="m 49.538455,10.850682 0.04255,3.456529"
       id="path992"
       sodipodi:nodetypes="cc" />
  </g>
</svg>
